<svg width="37" height="49" viewBox="0 0 37 49" fill="none" xmlns="http://www.w3.org/2000/svg">
<path d="M26.5 15C26.8 15.1 27.1 15.1 27.4 15.1C27.6 15.1 27.8 15.1 28.1 15C29 14.8 29.9 14.3 30.4 13.5C30.6 13.1 31 12.9 31.4 12.8C31.8 12.7 32.3 12.8 32.6 13.1C33.4 13.6 34.3 13.8 35.3 13.7H35.5L35.1 11.7H34.9C34.5 11.8 34 11.7 33.7 11.4C32.3 10.5 30.5 10.6 29.3 11.6C29.5 11.2 29.6 10.7 29.7 10.3C29.7 9.89995 29.9 9.39995 30.3 9.19995C30.6 8.89995 31.1 8.79995 31.5 8.79995C32.4 8.89995 33.4 8.59995 34.1 7.99995L34.3 7.79995L33 6.19995L32.8 6.39995C32.5 6.69995 32 6.79995 31.6 6.79995C29.7 6.69995 27.9 8.09995 27.7 10.1C27.7 10.5 27.5 11 27.1 11.2C26.8 11.5 26.3 11.6 25.9 11.6C25.4 11.6 25 11.6 24.5 11.7C24.3 11.4 24.1 11.2 23.8 11L27.2 4.09995C27.4 3.79995 27.3 3.39995 27.2 3.09995C27 2.79995 26.7 2.59995 26.3 2.59995C25.8 2.59995 25.3 2.39995 25 1.99995C23.5 0.599951 21.2 0.599951 19.7 1.99995C19 2.69995 17.8 2.69995 17.1 1.99995C15.6 0.599951 13.3 0.599951 11.8 1.99995C11.5 2.29995 11 2.49995 10.5 2.49995C10.1 2.49995 9.8 2.69995 9.6 2.99995C9.4 3.29995 9.4 3.69995 9.6 3.99995L13 10.9C12.4 11.3 12.1 11.8 11.9 12.5C11.8 13.1 11.8 13.8 12.1 14.3C5 16.4 0 23 0 30.5V44.7999C0 47.0999 1.9 49 4.2 49H32.7C35 49 36.9 47.0999 36.9 44.7999V30.5C36.9 23.7 32.7 17.5 26.5 15ZM34.8 30.5V44.7999C34.8 46 33.8 46.9 32.7 46.9H4.2C3 46.9 2.1 45.8999 2.1 44.7999V30.5C2.1 22.2999 8.7 15.7 16.9 15.7H20C28.2 15.7 34.8 22.4 34.8 30.5ZM14.5 12.6H22.4C22.7 12.6 22.9 12.8 22.9 13.1C22.9 13.4 22.7 13.6 22.4 13.6H14.5C14.2 13.6 14 13.4 14 13.1C14 12.8 14.2 12.6 14.5 12.6ZM21.8 10.5H15.2L12.1 4.39995C12.5 4.19995 12.9 3.99995 13.2 3.69995C13.9 2.99995 15.1 2.99995 15.8 3.69995C17.3 5.09995 19.6 5.09995 21.1 3.69995C21.8 2.99995 23 2.99995 23.7 3.69995C24 3.99995 24.4 4.19995 24.8 4.39995L21.8 10.5ZM24.7 14.3C24.7 14.2 24.8 14.2 24.8 14.1C25 14.2 25.2 14.3 25.4 14.4C25.5 14.5 25.7 14.6 25.8 14.6C25.5 14.6 25.1 14.5 24.7 14.3Z" fill="#FFA002"/>
<path d="M22.6449 26.4906L12.8162 36.3193L14.3011 37.8042L24.1298 27.9756L22.6449 26.4906Z" fill="#FFA002"/>
<path d="M21.6 32.7C20.2 32.7 19 33.8999 19 35.2999C19 36.6999 20.2 37.9 21.6 37.9C23 37.9 24.2 36.6999 24.2 35.2999C24.3 33.7999 23.1 32.7 21.6 32.7ZM22.2 35.2999C22.2 35.5999 22 35.7999 21.7 35.7999C21.4 35.7999 21.2 35.5999 21.2 35.2999C21.2 34.9999 21.4 34.7999 21.7 34.7999C22 34.7999 22.2 34.9999 22.2 35.2999Z" fill="#FFA002"/>
<path d="M15.3 31.5999C16.7 31.5999 17.9 30.3999 17.9 28.9999C17.9 27.5999 16.7 26.3999 15.3 26.3999C13.9 26.3999 12.7 27.5999 12.7 28.9999C12.7 30.3999 13.8 31.5999 15.3 31.5999ZM14.7 28.9999C14.7 28.6999 14.9 28.4999 15.2 28.4999C15.5 28.4999 15.7 28.6999 15.7 28.9999C15.7 29.2999 15.5 29.4999 15.2 29.4999C15 29.4999 14.7 29.2999 14.7 28.9999Z" fill="#FFA002"/>
<path d="M18.5 20.8C12.3 20.8 7.19995 25.9001 7.19995 32.1C7.19995 38.3 12.3 43.4001 18.5 43.4001C24.7 43.4001 29.7999 38.3 29.7999 32.1C29.7999 25.9001 24.7 20.8 18.5 20.8ZM18.5 41.4001C13.4 41.4001 9.19995 37.2001 9.19995 32.1C9.19995 27.0001 13.4 22.8 18.5 22.8C23.6 22.8 27.7999 27.0001 27.7999 32.1C27.6999 37.2001 23.6 41.4001 18.5 41.4001Z" fill="#FFA002"/>
</svg>
