<svg width="68" height="48" viewBox="0 0 68 48" fill="none" xmlns="http://www.w3.org/2000/svg">
<path d="M33.3562 48C32.7281 48 32.3719 47.8687 32.325 47.8406C31.5 47.4 30.4406 46.4531 28.8094 44.9625C25.1531 41.625 19.6219 36.5813 14.1 36.5813H12.5531C12.0375 36.5813 11.6156 36.1594 11.6156 35.6438V20.6813L1.85625 16.6219C0.24375 15.9469 0 14.9812 0 14.4562C0 13.9406 0.24375 12.975 1.85625 12.3L30.1312 0.534375C30.7781 0.28125 31.4625 0.103125 32.1562 0.01875L34.8469 0C35.6063 0.075 36.3562 0.253125 37.0687 0.534375L65.3344 12.3C66.9469 12.975 67.1906 13.9406 67.1906 14.4562C67.1906 14.9719 66.9469 15.9375 65.3344 16.6125L63.1219 17.5312V35.6438L63.4312 35.7375C65.4 36.3188 66.8625 37.9313 67.2469 39.9469C67.5187 41.3719 67.2094 42.8156 66.3938 44.0156C65.5781 45.2156 64.3406 46.0219 62.9062 46.2844C62.5688 46.35 62.2313 46.3781 61.8938 46.3781C59.2875 46.3781 57.0375 44.5125 56.5594 41.9437C56.2875 40.5187 56.5969 39.075 57.4125 37.875C58.2281 36.675 59.4656 35.8687 60.9 35.6062L61.2469 35.5406V18.3187L54.9281 20.9531V35.6438C54.9281 36.1594 54.5063 36.5813 53.9906 36.5813H52.3687C47.0156 36.5813 41.5125 41.625 37.875 44.9625C36.3844 46.3313 35.4188 47.2031 34.65 47.6906L34.6312 47.7C34.6312 47.7 34.2188 47.9719 33.525 47.9906C33.4594 48 33.4031 48 33.3562 48ZM13.4906 34.7063H14.1C20.3437 34.7063 26.1938 40.05 30.0656 43.575C31.2094 44.6156 32.4937 45.7875 33.1312 46.1531L33.3469 46.275L33.5625 46.1531C34.2 45.7875 35.475 44.6156 36.6 43.5844C40.4531 40.05 46.275 34.7063 52.3594 34.7063H53.0437V21.7313L37.0687 28.3875C35.9531 28.7906 34.7812 28.9969 33.5906 28.9969C32.4 28.9969 31.2375 28.7906 30.1125 28.3875L13.4813 21.4688V34.7063H13.4906ZM61.65 37.4062C59.7937 37.5375 58.3312 39.0937 58.3219 40.9594C58.3125 42.9281 59.9062 44.5406 61.8844 44.55C63.5719 44.5406 65.0344 43.3406 65.3719 41.6906C65.7656 39.7594 64.5187 37.8656 62.5875 37.4625L62.4937 37.4437L62.4 37.4719C62.325 37.4906 62.25 37.5 62.175 37.5C62.0625 37.5 61.95 37.4812 61.8469 37.4344L61.7531 37.3969L61.65 37.4062ZM33.5906 1.8C32.5406 1.8 31.5656 1.96875 30.8438 2.25938L2.57812 14.0344C2.55 14.0437 2.52188 14.0625 2.49375 14.0719L1.63125 14.4656L2.49375 14.85C2.52188 14.8594 2.55 14.8781 2.57812 14.8875L30.8438 26.6625C31.5562 26.9625 32.5312 27.1219 33.5906 27.1219C34.6406 27.1219 35.6156 26.9531 36.3375 26.6625L64.6219 14.8875C64.65 14.8781 64.6687 14.8688 64.6969 14.8594L65.5594 14.4656L64.6875 14.0812C64.6594 14.0719 64.6312 14.0531 64.6031 14.0438L36.3375 2.25938C35.625 1.95938 34.65 1.8 33.5906 1.8Z" fill="#FFA002"/>
</svg>
