<svg width="35" height="48" viewBox="0 0 35 48" fill="none" xmlns="http://www.w3.org/2000/svg">
<path d="M3.96563 48C1.78125 48 0 46.2188 0 44.0437V7.18125C0 5.30625 1.34063 3.68438 3.15938 3.3C3.47813 1.40625 5.11875 0 7.05938 0H25.7813C25.8094 0 25.8469 0 25.875 0.009375C26.0344 0.028125 26.1844 0.084375 26.3156 0.16875L26.3344 0.178125C26.3531 0.1875 26.3719 0.20625 26.3906 0.225C26.4 0.234375 26.4094 0.24375 26.4188 0.253125L26.4563 0.28125L34.5938 8.55938C34.6031 8.56875 34.6125 8.57812 34.6219 8.5875C34.6313 8.60625 34.65 8.61563 34.6594 8.625L34.6781 8.65313C34.6875 8.67188 34.7063 8.68125 34.7156 8.7C34.7156 8.70938 34.725 8.71875 34.7344 8.72812L34.7438 8.7375C34.7531 8.74687 34.7625 8.76562 34.7719 8.78437C34.7813 8.79375 34.7813 8.80313 34.7813 8.8125C34.7906 8.83125 34.8 8.85 34.8094 8.86875V8.87812L34.8188 8.89688C34.8281 8.91563 34.8375 8.93437 34.8375 8.9625C34.8375 8.97188 34.8469 8.98125 34.8469 8.99063C34.8563 9.01875 34.8563 9.0375 34.8656 9.05625C34.8656 9.06563 34.8656 9.08438 34.875 9.09375C34.875 9.1125 34.8844 9.13125 34.8844 9.15C34.8844 9.17812 34.8938 9.21562 34.8938 9.24375V14.1937V35.8875V41.0344C34.8938 42.9 33.6094 44.4937 31.8 44.8969C31.3969 46.7062 29.8125 48 27.9375 48H3.96563ZM3.10313 5.34375C2.4 5.67188 1.93125 6.375 1.93125 7.18125V44.0344C1.93125 45.15 2.84063 46.0594 3.96563 46.0687H27.9281C28.6875 46.0687 29.3719 45.6375 29.7188 44.9906H7.05938C4.875 44.9906 3.10313 43.2094 3.09375 41.0344L3.10313 5.34375ZM7.05938 1.93125C5.94375 1.93125 5.03438 2.84062 5.025 3.96562V41.0344C5.025 42.15 5.93438 43.0594 7.05938 43.0687H30.9188C32.0344 43.0687 32.9438 42.1594 32.9531 41.0344V10.2H27.9281C26.2219 10.2 24.825 8.80312 24.825 7.09687V1.93125H7.05938ZM26.7469 7.09687C26.7469 7.74375 27.2719 8.26875 27.9188 8.26875H31.6031L26.7375 3.32812V7.09687H26.7469Z" fill="#0E3846"/>
<path d="M20.925 29.7375C20.925 29.7375 21.6469 30.6937 22.3781 29.9625C23.1 29.2406 22.1719 28.5281 22.1719 28.5281L14.8781 21.2344C14.8781 21.2344 12.675 19.5281 14.0063 18.225C15.3375 16.9312 17.0156 19.0969 17.0156 19.0969L26.5781 28.6594C26.5781 28.6594 29.0344 30.8906 26.9438 32.9906C24.8438 35.0812 22.6125 32.6156 22.6125 32.6156L11.8594 21.8906C11.8594 21.8906 7.88439 18.45 11.0719 15.2719C14.2594 12.0937 17.6531 16.0969 17.6531 16.0969L25.8094 24.2531C25.8094 24.2531 26.5688 25.1625 27.2625 24.4781C27.9469 23.7937 27.0375 23.0344 27.0375 23.0344L17.6813 13.6781C17.6813 13.6781 13.8094 10.1437 9.86252 14.0906C5.91564 18.0375 9.45002 21.9094 9.45002 21.9094L22.3125 34.7719C22.3125 34.7719 25.1531 37.35 28.2188 34.275C31.2844 31.2 28.7156 28.3687 28.7156 28.3687L17.6531 17.3062C17.6531 17.3062 15.3469 14.475 12.7781 17.0437C10.2 19.6125 13.0781 21.8812 13.0781 21.8812L20.925 29.7375Z" fill="#0E3846"/>
</svg>
