<svg width="30" height="48" viewBox="0 0 30 48" fill="none" xmlns="http://www.w3.org/2000/svg">
<path d="M0 48V39.8719C0 39.8438 0 39.8156 0 39.7969C0.1875 37.6125 1.47187 35.7188 3.43125 34.7344C3.45937 34.7156 3.49688 34.7062 3.53438 34.6875L7.47187 33.2625V31.8938C7.47187 31.5094 7.69688 31.1625 8.05313 31.0219L10.1719 30.15C8.34375 29.3625 6.77812 28.0875 5.625 26.4563C4.45312 24.8063 3.76875 22.875 3.6375 20.85C2.08125 20.1937 1.21875 18.4688 1.62187 16.8281C1.82812 15.9656 2.4375 15.2437 3.25313 14.8969L3.075 12.2438C3.0375 11.7188 3.0375 11.1844 3.075 10.6688C3.27187 7.75313 4.56563 5.05313 6.70312 3.06563C8.82187 1.0875 11.5969 0 14.4938 0C14.7563 0 15.0281 0.009375 15.2906 0.028125C18.3469 0.234375 21.1312 1.62187 23.1469 3.9375C25.1625 6.25313 26.1469 9.19687 25.9406 12.2531L25.7531 14.9062C26.5688 15.2531 27.1688 15.975 27.375 16.8375C27.7781 18.4781 26.9156 20.1938 25.3688 20.8594C25.2375 22.8656 24.5625 24.7875 23.4 26.4375C22.2469 28.0688 20.6719 29.3531 18.8438 30.1594L21 31.05C21.0187 31.0594 21.0469 31.0688 21.0656 31.0781L21.0844 31.0875C21.1219 31.1063 21.15 31.125 21.1875 31.1531C21.1875 31.1531 21.1969 31.1625 21.2062 31.1625C21.2344 31.1812 21.2531 31.2 21.2812 31.2281L21.3 31.2469C21.3281 31.275 21.3563 31.3031 21.375 31.3313L21.3844 31.3406C21.4031 31.3687 21.4219 31.3969 21.4406 31.425L21.4594 31.4531C21.4781 31.4813 21.4875 31.5094 21.5062 31.5375C21.5062 31.5469 21.5156 31.5469 21.5156 31.5563C21.525 31.5938 21.5437 31.6219 21.5531 31.6594C21.5531 31.6688 21.5531 31.6687 21.5625 31.6781C21.5719 31.7156 21.5812 31.7437 21.5812 31.7719V31.8C21.5906 31.8375 21.5906 31.875 21.5906 31.9125V33.2812L25.5281 34.7063C25.5656 34.7156 25.5938 34.7344 25.6312 34.7531C27.5906 35.7375 28.875 37.6313 29.0625 39.8156C29.0625 39.8438 29.0625 39.8719 29.0625 39.8906V48H0ZM27.1781 46.125V39.9094C27.0375 38.4281 26.1562 37.125 24.825 36.4313L20.9906 35.0437L18.3375 38.5875C18.1594 38.8219 17.8781 38.9625 17.5875 38.9625C17.4 38.9625 17.2219 38.9062 17.0719 38.8031L14.5312 37.1156L11.9906 38.8125C11.8406 38.9156 11.6531 38.9719 11.475 38.9719C11.1844 38.9719 10.9031 38.8313 10.725 38.5969L8.0625 35.0437L4.22812 36.4313C2.89687 37.125 2.01562 38.4281 1.875 39.9187V46.125H27.1781ZM11.6812 36.75L12.7781 36.0188C12.7875 36 12.7969 35.9813 12.8156 35.9625L10.8 34.6219C10.7062 34.575 10.6219 34.5187 10.5469 34.4531L9.38437 33.675L11.6812 36.75ZM17.3719 36.75L19.6781 33.675L18.45 34.5C18.4219 34.5281 18.3844 34.5469 18.3469 34.575L16.2375 36L17.3719 36.75ZM14.5312 34.8562L16.95 33.2438V30.8812C16.95 30.8438 16.9406 30.8156 16.9406 30.7781C16.1437 30.9656 15.3281 31.05 14.5125 31.05C13.7156 31.05 12.9094 30.9562 12.1312 30.7875V33.2531L14.5312 34.8562ZM3.85312 16.6969C3.64687 16.8281 3.49688 17.0344 3.44063 17.2781C3.43125 17.3156 3.42188 17.3438 3.42188 17.3812C3.2625 18.2531 3.84375 19.0781 4.71562 19.2375C5.16563 19.3125 5.49375 19.7063 5.49375 20.1656V20.1844C5.49375 25.1531 9.53437 29.1937 14.5031 29.1937C19.4719 29.1937 23.5125 25.1531 23.5125 20.1844V20.1562C23.5125 19.6969 23.8406 19.3125 24.2906 19.2375C24.3188 19.2281 24.3563 19.2281 24.3844 19.2188C25.2375 19.0125 25.7625 18.1406 25.5563 17.2875C25.5094 17.0719 25.3875 16.8938 25.2188 16.7625C25.1812 16.8094 25.1344 16.8563 25.0875 16.9031L24.2531 17.6813C24.1313 17.7938 23.9906 17.8687 23.8312 17.9062C23.7563 17.925 23.6812 17.9344 23.6063 17.9344C23.175 17.9344 22.8 17.6437 22.6969 17.2219L21.1594 10.8937C20.6531 9.79688 19.5938 9.075 18.3844 9.01875L17.9062 9C15.8906 11.5594 12.8719 13.0219 9.61875 13.0219C9.24375 13.0219 8.86875 13.0031 8.49375 12.9656L7.40625 12.825L7.09687 16.6594C7.06875 16.9594 6.9 17.2406 6.64688 17.4C6.49688 17.4938 6.35625 17.55 6.14062 17.55C5.80312 17.55 5.29688 17.4 4.32187 17.0062C4.29375 16.9969 4.26562 16.9875 4.2375 16.9688C4.10625 16.9031 3.975 16.8094 3.85312 16.6969ZM5.31563 15.3937L5.57812 12.1406V12.1031C5.65312 11.4188 6.225 10.9031 6.90937 10.9031C6.95625 10.9031 7.00313 10.9031 7.05938 10.9125L8.69062 11.0906C9 11.1188 9.30937 11.1375 9.61875 11.1375C12.4219 11.1375 15.0656 9.76875 16.6969 7.49063C16.875 7.24688 17.1562 7.09687 17.4656 7.09687C17.475 7.09687 17.4937 7.09687 17.5031 7.09687L18.4781 7.14375C20.4094 7.2375 22.1531 8.44687 22.9219 10.2281C22.9406 10.275 22.9594 10.3219 22.9688 10.3781L23.9156 14.2969L24.0656 12.0656C24.0938 11.6531 24.0938 11.2312 24.0656 10.8188C23.7188 5.79375 19.5281 1.875 14.5125 1.875C14.2875 1.875 14.0625 1.88438 13.8469 1.89375C11.2875 2.07188 8.9625 3.23437 7.275 5.16562C5.5875 7.09687 4.7625 9.5625 4.94063 12.1219L5.16562 15.3281C5.2125 15.3469 5.26875 15.3656 5.31563 15.3937Z" fill="#0E3846"/>
</svg>
