<svg width="61" height="48" viewBox="0 0 61 48" fill="none" xmlns="http://www.w3.org/2000/svg">
<path d="M0.918749 48H28.3875C28.8937 48 29.3062 47.5875 29.3062 47.0813V40.3688C29.3062 40.3406 29.3062 40.3219 29.3062 40.2938C29.1187 38.1375 27.8343 36.2344 25.9031 35.2594C25.8843 35.25 25.8656 35.2406 25.8562 35.2406L20.2406 32.8406V29.5219C23.2875 27.5438 25.125 24.15 25.125 20.5219V19.95C26.6718 19.2844 27.5062 17.6063 27.1125 15.9657C26.8781 15 26.1562 14.2313 25.2 13.9407V10.9032C25.1625 4.86567 20.2406 -0.0186962 14.1937 5.38025e-05C8.17499 0.0188038 3.3 4.8938 3.28125 10.9125V14.0344C2.44687 14.3719 1.82812 15.0938 1.62187 15.9657C1.21875 17.5969 2.0625 19.2844 3.60937 19.95V20.5219C3.60937 24.4032 5.69999 27.975 9.08436 29.8875V32.85L3.46875 35.25C3.45 35.2594 3.43125 35.2688 3.42187 35.2688C1.48125 36.2344 0.1875 38.1469 0 40.2938C0 40.3219 0 40.3406 0 40.3688V47.0813C0 47.5875 0.4125 48 0.918749 48ZM5.10937 10.9125C5.12812 5.87817 9.23436 1.80943 14.2687 1.82818C19.275 1.84693 23.3343 5.9063 23.3531 10.9125V14.0532C21.4875 14.2313 16.5 14.4188 12.3562 11.8969C16.1719 11.3344 19.2187 10.1907 21.4219 8.50317C21.825 8.20317 21.9094 7.6313 21.6094 7.2188C21.3094 6.81567 20.7375 6.7313 20.325 7.0313C20.3156 7.04067 20.3062 7.04067 20.2969 7.05005C15.3656 10.8375 6.51562 10.4344 6.43124 10.425C5.93437 10.3969 5.50312 10.7813 5.46562 11.2875L5.26874 14.5875L5.10937 14.5032V10.9125ZM5.43749 20.5219V19.275C5.43749 18.8344 5.11874 18.45 4.67812 18.375C3.80625 18.2157 3.21562 17.3813 3.375 16.5094C3.38437 16.4719 3.38437 16.4438 3.39375 16.4063C3.45 16.1532 3.60937 15.9469 3.825 15.8063C3.94687 15.9188 4.07812 16.0125 4.21875 16.0875L5.40937 16.6969C5.96249 16.9782 6.63749 16.7625 6.91874 16.2094C6.98437 16.0782 7.03124 15.9375 7.04062 15.7875C7.04062 15.7782 7.04062 15.7782 7.04062 15.7688L7.25624 12.2532C7.82812 12.2532 8.65312 12.2344 9.63749 12.1688C15.6375 17.2219 24.075 15.8063 24.4312 15.7407C24.4968 15.7313 24.5625 15.7032 24.6281 15.675C24.975 15.7688 25.2375 16.0407 25.3218 16.3875C25.35 16.5094 25.3687 16.6407 25.3687 16.7719C25.3687 17.55 24.8062 18.225 24.0375 18.3563C23.5968 18.4407 23.2781 18.825 23.2781 19.275V20.5032C23.2781 25.4344 19.2844 29.4281 14.3531 29.4188C9.43124 29.4375 5.43749 25.4532 5.43749 20.5219ZM14.3531 31.275C15.7406 31.275 17.1094 31.0125 18.3844 30.4875V32.6813C15.9844 33.6375 13.3031 33.6375 10.9031 32.6813V30.7031C12.0187 31.0781 13.1812 31.275 14.3531 31.275ZM1.82812 40.4156C1.96875 38.925 2.86875 37.6031 4.2 36.9188L10.1719 34.3688C13.0406 35.5219 16.2469 35.5219 19.1156 34.3688L25.0875 36.9188C26.4281 37.6031 27.3187 38.925 27.4593 40.4156V46.1719H1.82812V40.4156Z" fill="#0E3846"/>
<path d="M53.9907 4.17193C49.8376 -0.281193 42.8532 -0.524943 38.4001 3.63755C35.972 5.9063 34.6876 9.15005 34.922 12.4688L35.1095 15.1313C34.0501 15.3282 33.2064 16.125 32.9439 17.1657C32.8782 17.4282 32.8501 17.6907 32.8501 17.9625C32.8501 18.5719 33.0189 19.1719 33.3376 19.6969C31.0032 21.5344 30.6001 24.9188 32.4376 27.2532C32.9064 27.8532 33.5064 28.3407 34.1814 28.6969C34.622 28.9313 35.1001 29.1 35.5876 29.1938C36.0282 29.2875 36.4782 29.3156 36.9282 29.2969C37.4251 30.9 38.6439 32.1844 40.2282 32.7563L35.3814 34.5094C35.3439 34.5188 35.3157 34.5375 35.2782 34.5563C33.4032 35.5031 32.1564 37.35 31.9689 39.4406C31.9689 39.4688 31.9689 39.4875 31.9689 39.5156V47.0813C31.9689 47.5875 32.3814 48 32.8876 48H59.0251C59.5313 48 59.9438 47.5875 59.9438 47.0813V39.5156C59.9438 39.4875 59.9438 39.4688 59.9438 39.4406C59.7657 37.35 58.5095 35.5031 56.6345 34.5563C56.6063 34.5375 56.5688 34.5281 56.5313 34.5094L51.6564 32.7469C51.872 32.6719 52.0876 32.5781 52.2938 32.4656C53.5595 31.8 54.5157 30.6563 54.9376 29.2875C55.8938 29.3344 56.8407 29.1281 57.6845 28.6875C59.4657 27.7594 60.572 25.9219 60.572 23.9157C60.572 22.2938 59.6063 20.7844 58.4532 19.7813C58.8095 19.2375 59.0063 18.6 59.0063 17.9532C59.0063 17.6813 58.9782 17.4188 58.9126 17.1563C58.6501 16.1157 57.8157 15.3188 56.7563 15.1125L56.9438 12.4594C57.1595 9.41255 56.0907 6.40317 53.9907 4.17193ZM39.197 5.42818C42.6657 1.71568 48.4876 1.50943 52.2095 4.97818C54.2345 6.87192 55.3032 9.57192 55.1157 12.3375L54.9282 15C53.222 14.7469 51.947 14.0719 51.1407 12.9938C49.4439 10.7344 50.1845 7.3313 50.1939 7.30317C50.3064 6.8063 49.997 6.3188 49.5095 6.2063C49.172 6.1313 48.8157 6.2438 48.5907 6.51567L46.022 9.64692L46.0126 9.6563C44.6345 11.4094 42.5251 12.4313 40.2939 12.4219C39.0376 12.4219 37.8189 12.8532 36.8345 13.6313L36.7407 12.3375C36.5626 9.79692 37.4532 7.28442 39.197 5.42818ZM38.5407 28.1719C38.4751 27.675 38.0157 27.3188 37.5189 27.3844C37.4907 27.3844 37.4626 27.3938 37.4345 27.4031C36.947 27.5156 36.4314 27.5156 35.9439 27.4125C35.7845 27.375 35.6251 27.3375 35.4657 27.2813C34.0501 26.775 33.1126 25.4344 33.1126 23.9344C33.122 22.7438 33.7126 21.6282 34.7064 20.9719C34.9595 21.1032 35.2314 21.1969 35.5126 21.2532C35.9345 25.0125 38.3439 28.2563 41.822 29.7375V31.2656C40.1345 31.1438 38.7564 29.85 38.5407 28.1719ZM45.9282 35.5969L43.6501 32.5313V30.3094C45.1501 30.6469 46.697 30.6469 48.197 30.3094V32.5313L45.9282 35.5969ZM58.1063 39.5625V46.1719H33.797V39.5625C33.9282 38.1375 34.7814 36.8813 36.047 36.225L42.4032 33.9281L45.0095 37.4344V40.4813C45.0095 40.9875 45.422 41.4 45.9282 41.4C46.4345 41.4 46.847 40.9875 46.847 40.4813V37.4344L49.4626 33.9094L55.8657 36.2156C57.122 36.8813 57.9657 38.1375 58.1063 39.5625ZM56.8407 27.075C56.5501 27.225 56.2407 27.3375 55.9126 27.4031C55.4157 27.5063 54.9095 27.4969 54.422 27.3938C53.9251 27.2813 53.4376 27.6 53.3345 28.0875C53.3251 28.1157 53.3251 28.1438 53.3157 28.1719C53.1657 29.3156 52.4626 30.3188 51.4407 30.8625C51.0001 31.0969 50.522 31.2281 50.0345 31.2563V29.7375C53.5126 28.2563 55.9313 25.0125 56.3532 21.2532C56.597 21.1969 56.8313 21.1219 57.0563 21.0188C57.9563 21.7313 58.7532 22.8563 58.7532 23.9438C58.7438 25.2563 58.0126 26.4657 56.8407 27.075ZM57.1313 17.5969C57.3282 18.4125 56.8313 19.2375 56.0157 19.4344C55.8938 19.4625 55.7813 19.4813 55.6595 19.4813H55.4907C54.9939 19.4813 54.5907 19.875 54.572 20.3625C54.4126 25.1344 50.4095 28.875 45.6376 28.7156C41.0907 28.5656 37.4345 24.9094 37.2845 20.3625C37.2657 19.8657 36.8626 19.4813 36.3657 19.4813H36.197C35.3532 19.4813 34.6782 18.7969 34.6782 17.9532C34.6782 17.8313 34.697 17.7094 34.7251 17.5969C34.8282 17.175 35.2126 16.8938 35.6532 16.9032C35.7189 16.9032 35.7845 16.9125 35.8407 16.9219C35.897 16.9313 35.9532 16.9407 36.0095 16.9407H36.0845H36.0939C36.1314 16.9407 36.1689 16.9407 36.2064 16.9313C36.2157 16.9313 36.2251 16.9313 36.2439 16.9219C36.272 16.9125 36.3001 16.9125 36.3282 16.9032C36.3376 16.9032 36.347 16.9032 36.3564 16.8938C36.3939 16.8844 36.4314 16.8657 36.4689 16.8563C36.4782 16.8563 36.4782 16.8469 36.4876 16.8469C36.5157 16.8375 36.5439 16.8188 36.572 16.8C36.5814 16.7907 36.5907 16.7907 36.6001 16.7813C36.6282 16.7625 36.647 16.7438 36.6751 16.725C36.6845 16.7157 36.6845 16.7157 36.6939 16.7063C36.722 16.6875 36.7407 16.6594 36.7689 16.6407L36.7782 16.6313C36.7876 16.6219 36.7876 16.6125 36.797 16.6032C36.8157 16.575 36.8345 16.5563 36.8532 16.5282C36.8626 16.5188 36.8626 16.5094 36.872 16.5C36.8907 16.4625 36.9095 16.4344 36.9282 16.3969C37.5376 15.0844 38.8595 14.2407 40.3032 14.2407C43.0876 14.25 45.7314 12.975 47.4564 10.7907L48.2251 9.85317C48.3189 11.1844 48.6751 12.7407 49.6782 14.0719C50.9626 15.7969 53.0063 16.7532 55.7345 16.9125H55.7626C55.7626 16.9125 55.7813 16.9125 55.7907 16.9125H55.8563C55.9126 16.9125 55.9688 16.9032 56.0251 16.8938C56.5126 16.8 57.0001 17.1094 57.1313 17.5969Z" fill="#0E3846"/>
</svg>
