<svg width="44" height="48" viewBox="0 0 44 48" fill="none" xmlns="http://www.w3.org/2000/svg">
<path d="M23.8688 21.8625C22.2 21.8625 20.6344 21.2156 19.4625 20.0344C18.2907 18.8625 17.6438 17.2969 17.6438 15.6375C17.6438 12.2063 20.4282 9.40314 23.8688 9.40314C27.3094 9.40314 30.1032 12.1969 30.1032 15.6281C30.1032 19.0688 27.3094 21.8625 23.8688 21.8625ZM23.8782 11.2969C22.725 11.2969 21.6282 11.7469 20.8125 12.5625C20.0063 13.3688 19.5469 14.4844 19.5469 15.6188C19.5469 16.7813 19.9969 17.8688 20.8125 18.6844C21.6282 19.5 22.7157 19.95 23.8688 19.95C25.0219 19.95 26.1188 19.5 26.9344 18.6844C27.75 17.8688 28.2 16.7813 28.2 15.6188C28.2 14.4656 27.75 13.3781 26.9344 12.5625C26.1188 11.7375 25.0313 11.2969 23.8782 11.2969Z" fill="#0E3846"/>
<path d="M13.2187 36.9562C12.6937 36.9562 12.2625 36.525 12.2625 36V31.4156C12.2625 26.8781 15.9562 23.1937 20.4843 23.1937H27.2531C31.7906 23.1937 35.475 26.8875 35.475 31.4156V36C35.475 36.525 35.0437 36.9562 34.5187 36.9562H13.2187ZM33.5718 35.0437V31.4156C33.5625 27.9469 30.7312 25.1156 27.2624 25.1062H20.5031C17.0343 25.1156 14.2031 27.9469 14.1937 31.4156V35.0437H33.5718Z" fill="#0E3846"/>
<path d="M7.35 48C6.44063 48 5.5875 47.6437 4.94063 46.9969C4.29375 46.3594 3.9375 45.4969 3.9375 44.5875V40.8187H2.9625C1.33125 40.8187 0 39.4875 0 37.8562V37.6781C0 36.0469 1.33125 34.725 2.9625 34.7156H3.9375V27.075H2.9625C1.33125 27.075 0 25.7438 0 24.1125V23.9344C0 22.3031 1.33125 20.9812 2.9625 20.9719H3.9375V13.3312H2.9625C1.33125 13.3312 0 12 0 10.3687V10.1906C0 8.55937 1.33125 7.2375 2.9625 7.22812H3.95625V3.4125C3.95625 1.5375 5.48438 0 7.36875 0H40.3875C41.2969 0 42.15 0.35625 42.7969 1.00312C43.4344 1.63125 43.8 2.5125 43.8 3.4125V44.5875C43.8 46.4719 42.2625 48 40.3875 48H7.35ZM5.87813 44.5969C5.87813 45 6.02813 45.375 6.30938 45.6562C6.59063 45.9375 6.96563 46.0875 7.35938 46.0875H40.3781C41.2031 46.0781 41.8781 45.4125 41.8781 44.5875L41.8875 3.4125C41.8875 2.5875 41.2125 1.9125 40.3875 1.9125H7.35938C6.53438 1.92188 5.85938 2.5875 5.85938 3.4125V7.22812H6.76875C8.4 7.22812 9.72188 8.55937 9.73125 10.1906V10.3687C9.73125 12 8.4 13.3219 6.76875 13.3312H5.85938V20.9719H6.76875C8.4 20.9719 9.72188 22.3031 9.73125 23.9344V24.1125C9.73125 25.7438 8.4 27.0656 6.76875 27.075H5.85938V34.7344H6.7875C8.41875 34.7344 9.74063 36.0656 9.75 37.6969V37.875C9.75 39.5062 8.41875 40.8281 6.7875 40.8375H5.87813V44.5969ZM2.95313 36.6844C2.4 36.6844 1.95938 37.1344 1.95938 37.6875V37.8656C1.95938 38.4188 2.40938 38.8594 2.95313 38.8594L6.75938 38.85C7.3125 38.85 7.75313 38.4 7.75313 37.8562V37.6781C7.75313 37.125 7.30313 36.6844 6.75938 36.6844H2.95313V36.45V36.6844ZM2.95313 22.9406C2.69063 22.9406 2.4375 23.0438 2.25 23.2313C2.0625 23.4188 1.95938 23.6719 1.95938 23.9344V24.1125C1.95938 24.6656 2.40938 25.1062 2.95313 25.1062L6.75938 25.0969C7.3125 25.0969 7.75313 24.6469 7.75313 24.1031V23.925C7.75313 23.3719 7.30313 22.9313 6.75938 22.9313H2.95313V22.6969V22.9406ZM2.95313 9.1875C2.69063 9.1875 2.4375 9.29062 2.25 9.47812C2.0625 9.66562 1.95938 9.91875 1.95938 10.1812V10.3594C1.95938 10.9125 2.40938 11.3531 2.95313 11.3531L6.75938 11.3438C7.3125 11.3438 7.75313 10.8938 7.75313 10.35V10.1719C7.75313 9.61875 7.30313 9.17813 6.75938 9.17813H2.95313V8.94375V9.1875Z" fill="#0E3846"/>
</svg>
