<svg width="40" height="40" viewBox="0 0 40 40" fill="none" xmlns="http://www.w3.org/2000/svg">
<circle cx="20" cy="20" r="20" fill="#E7EBED"/>
<path d="M17.2307 20.9259H25.4389L23.5523 22.8601L24.8461 24.1538L28.9999 20L24.8461 15.8461L23.5048 17.1399L25.4389 19.074H17.2307V20.9259Z" fill="#7998A7"/>
<path d="M19.987 27.1524C18.0788 27.1524 16.2875 26.4082 14.9375 25.0582C13.5875 23.7082 12.8476 21.9125 12.8476 20C12.8476 18.0918 13.5918 16.2918 14.9375 14.9418C16.2875 13.5918 18.0788 12.8476 19.987 12.8476C21.8909 12.8476 23.6779 13.5875 25.0279 14.9332L26.3389 13.6221C25.9712 13.2587 25.5687 12.9212 25.1404 12.6183C23.6216 11.5625 21.8433 11 19.987 11C15.0327 11 11 15.037 11 20C11 24.963 15.0327 29 19.987 29C21.8433 29 23.6216 28.4375 25.1361 27.3774C25.5687 27.0745 25.9668 26.7413 26.3346 26.3736L25.0279 25.0668C23.6822 26.4125 21.8909 27.1524 19.987 27.1524ZM28.3079 20.0366L28.2711 20L28.3079 19.9632L28.3446 20L28.3079 20.0366Z" fill="#7998A7"/>
</svg>
