<svg width="40" height="40" viewBox="0 0 40 40" fill="none" xmlns="http://www.w3.org/2000/svg">
<circle cx="20" cy="20" r="20" fill="#E7EBED"/>
<path d="M19.9853 30C21.5399 30 22.3897 28.9003 22.3897 27.3507H17.5759C17.5759 28.9003 18.4257 30 19.9853 30ZM27.7883 24.8113C27.0185 23.7966 25.5039 23.2017 25.5039 18.6579C25.5039 13.9941 23.4444 12.1196 21.5249 11.6697C21.3449 11.6247 21.215 11.5647 21.215 11.3748V11.2298C21.215 10.56 20.6651 9.99513 19.9953 10.0001C19.3255 9.99013 18.7756 10.56 18.7756 11.2298V11.3748C18.7756 11.5597 18.6456 11.6247 18.4657 11.6697C16.5412 12.1246 14.4867 13.9941 14.4867 18.6579C14.4867 23.2017 12.9721 23.7916 12.2023 24.8113C11.7074 25.4662 12.1773 26.4009 12.9971 26.4009H26.9985C27.8133 26.4009 28.2832 25.4612 27.7883 24.8113Z" fill="#7998A7"/>
</svg>
