<svg width="55" height="48" viewBox="0 0 55 48" fill="none" xmlns="http://www.w3.org/2000/svg">
<path d="M14.2532 47H31.3403C31.3403 41.7595 28.5 34.7722 34 27.5C41.0411 18.1902 41.588 1 23.5 1C17.0759 1 9 1.5 7 10.5C5 19.5 4.5 20 2 25.4557H5.50091C5.50091 33.3747 11.3358 34.9662 14.2532 34.7722V47Z" stroke="#FFA002" stroke-width="2"/>
<path d="M40.3015 47H23.2144C23.2144 41.7595 26.0547 34.7722 20.5547 27.5C13.5136 18.1902 12.9666 1 31.0547 1C37.4787 1 45.5547 1.5 47.5547 10.5C49.5547 19.5 50.0547 20 52.5547 25.4557H49.0538C49.0538 33.3747 43.2189 34.9662 40.3015 34.7722V47Z" stroke="#FFA002" stroke-width="2"/>
</svg>
