<svg width="54" height="47" viewBox="0 0 54 47" fill="none" xmlns="http://www.w3.org/2000/svg">
<path d="M4.48187 47C2.9848 47 1.77778 45.809 1.77778 44.3522V32.2953C0.720468 31.9105 0.00935673 30.9211 0 29.8125V10.4719C0 9.00604 1.21637 7.82417 2.70409 7.82417H14.1942V4.3885C14.1942 1.96979 16.2058 0 18.676 0H34.648C37.1181 0 39.1298 1.96979 39.1298 4.3885V7.81501H50.6199C52.117 7.81501 53.324 9.00604 53.324 10.4628V29.8033C53.3146 30.9119 52.6035 31.9014 51.5462 32.2862V44.3431C51.5462 45.809 50.3298 46.9908 48.8421 46.9908H4.48187V47ZM3.63977 44.3522C3.63977 44.8103 4.01404 45.1768 4.48187 45.1768H48.8421C49.3099 45.1768 49.6842 44.8103 49.6842 44.3522V32.6068L30.2596 35.2271V37.3893C30.2596 38.8552 29.0433 40.037 27.5556 40.037H25.7778C24.2807 40.037 23.0737 38.846 23.0737 37.3893V35.2271L3.63977 32.6068V44.3522ZM25.7778 31.3608C25.3099 31.3608 24.9357 31.7273 24.9357 32.1854V37.3984C24.9357 37.8565 25.3099 38.223 25.7778 38.223H27.5556C28.0234 38.223 28.3977 37.8565 28.3977 37.3984V32.1854C28.3977 31.7273 28.0234 31.3608 27.5556 31.3608H25.7778ZM27.5462 29.5376C29.0433 29.5376 30.2503 30.7287 30.2503 32.1854V33.3856L50.7228 30.6187C51.1345 30.5637 51.4433 30.2064 51.4433 29.8033V10.4719C51.4433 10.0138 51.069 9.64737 50.6012 9.64737H2.69474C2.2269 9.64737 1.85263 10.0138 1.85263 10.4719V29.8125C1.85263 30.2248 2.1614 30.5729 2.5731 30.6279L23.0456 33.3947V32.1945C23.0456 30.7287 24.262 29.5468 25.7497 29.5468H27.5462V29.5376ZM37.2585 7.81501V4.3885C37.2585 2.97758 36.0889 1.83236 34.648 1.83236H18.676C17.2351 1.83236 16.0655 2.97758 16.0655 4.3885V7.81501H17.7497V4.3885C17.7497 3.8846 18.1708 3.47232 18.6854 3.47232H34.6573C35.1719 3.47232 35.593 3.8846 35.593 4.3885V7.81501H37.2585ZM33.7123 7.81501V5.30468H19.6117V7.81501H33.7123Z" fill="#0E3846"/>
</svg>
