<svg width="44" height="48" viewBox="0 0 44 48" fill="none" xmlns="http://www.w3.org/2000/svg">
<path d="M41.9156 28.0219C42.7219 26.8125 43.125 25.3031 43.125 24C43.125 22.0312 42.2531 20.2031 40.7531 18.9656C41.0813 18.1688 41.25 17.3438 41.25 16.5C41.25 13.8844 39.7219 11.4563 37.4625 10.3219C37.8094 7.47187 35.9438 4.85625 33.1969 4.19063C32.1188 1.69688 29.7188 0 27.1875 0C24.8344 0 22.725 1.36875 21.5625 3.375C20.4 1.36875 18.2906 0 15.9375 0C13.4062 0 11.0062 1.69688 9.92812 4.19063C7.1625 4.86562 5.31563 7.49062 5.6625 10.3219C3.40313 11.4563 1.875 13.8844 1.875 16.5C1.875 17.3438 2.04375 18.1688 2.37187 18.9656C0.871875 20.2031 0 22.0312 0 24C0 25.3125 0.403125 26.8219 1.20938 28.0219C0.421875 29.1281 0 30.4312 0 31.7812C0 33.525 0.703125 35.1937 1.95938 36.4219C1.3125 40.3125 4.41562 44.25 8.4375 44.25C8.46562 44.25 8.49375 44.25 8.52188 44.25C9.85313 46.5469 12.3281 48 15 48C17.7844 48 20.2687 46.3312 21.5625 43.9219C22.8563 46.3312 25.3406 48 28.125 48C30.7969 48 33.2719 46.5469 34.6031 44.25C34.6313 44.25 34.6594 44.25 34.6875 44.25C38.2406 44.25 41.25 41.1188 41.25 37.4062C41.25 37.0875 41.2219 36.7687 41.1656 36.4219C42.4219 35.1844 43.125 33.525 43.125 31.7812C43.125 30.4312 42.7031 29.1281 41.9156 28.0219ZM20.625 14.1937C20.0719 13.875 19.4344 13.6875 18.75 13.6875C18.2344 13.6875 17.8125 14.1094 17.8125 14.625C17.8125 15.1406 18.2344 15.5625 18.75 15.5625C19.7812 15.5625 20.625 16.4062 20.625 17.4375V35.2688C19.2469 33.7125 17.2406 32.7188 15 32.7188C14.4844 32.7188 14.0625 33.1406 14.0625 33.6562C14.0625 34.1719 14.4844 34.5938 15 34.5938C18.1031 34.5938 20.625 37.1156 20.625 40.2188C20.625 43.4156 18.0469 46.125 15 46.125C12.825 46.125 10.8281 44.8406 9.90937 42.8531C9.74062 42.4875 9.35625 42.2719 8.95312 42.3187C8.8875 42.3281 8.82188 42.3375 8.75625 42.3469C6.08438 42.7125 3.08437 39.6937 3.9 36.3094C3.98437 35.9625 3.8625 35.5969 3.59063 35.3719C2.49375 34.4625 1.875 33.1594 1.875 31.7812C1.875 30.9281 2.11875 30.1031 2.55937 29.3719C3.68437 30.2906 5.08125 30.8438 6.5625 30.8438C7.07812 30.8438 7.5 30.4219 7.5 29.9062C7.5 29.3906 7.07812 28.9688 6.5625 28.9688C4.02187 28.9688 1.875 26.6437 1.875 24C1.875 22.3969 2.69063 20.9156 4.06875 20.0531C4.49063 19.7812 4.63125 19.2375 4.37812 18.7969C3.96562 18.0656 3.75 17.2875 3.75 16.5C3.75 13.9688 5.8125 11.5312 8.4375 11.5312C10.9312 11.5312 13.125 13.8562 13.125 16.5C13.125 17.0156 13.5469 17.4375 14.0625 17.4375C14.5781 17.4375 15 17.0156 15 16.5C15 12.7875 11.9906 9.65625 8.4375 9.65625C8.12813 9.65625 7.80937 9.68438 7.5 9.73125C7.5 9.70312 7.5 9.68437 7.5 9.65625C7.5 7.56563 9.19687 5.90625 11.25 5.90625C12.2531 5.90625 13.1906 6.3 13.9031 7.00312C14.2688 7.36875 14.8594 7.36875 15.225 7.00312C15.5906 6.6375 15.5906 6.04688 15.225 5.68125C14.3719 4.82812 13.2844 4.28438 12.1125 4.09688C12.9469 2.86875 14.3156 1.875 15.9375 1.875C18.4312 1.875 20.625 4.2 20.625 6.84375V14.1937ZM36.5625 30.8438C38.0438 30.8438 39.4406 30.2906 40.5656 29.3719C41.0156 30.1031 41.25 30.9375 41.25 31.7812C41.25 33.1594 40.6312 34.4625 39.5437 35.3719C39.2719 35.5969 39.15 35.9625 39.2344 36.3094C39.3375 36.7219 39.3844 37.0687 39.3844 37.4062C39.3844 40.3125 36.75 42.6656 34.3781 42.3469C34.3125 42.3375 34.2469 42.3281 34.1813 42.3187C33.7781 42.2719 33.3937 42.4875 33.225 42.8531C32.3062 44.8406 30.3094 46.125 28.1344 46.125C25.0875 46.125 22.5094 43.4156 22.5094 40.2188C22.5094 37.1156 25.0312 34.5938 28.1344 34.5938C28.65 34.5938 29.0719 34.1719 29.0719 33.6562C29.0719 33.1406 28.65 32.7188 28.1344 32.7188C25.8938 32.7188 23.8875 33.7031 22.5094 35.2688V17.4375C22.5094 16.4062 23.3531 15.5625 24.3844 15.5625C24.9 15.5625 25.3219 15.1406 25.3219 14.625C25.3219 14.1094 24.9 13.6875 24.3844 13.6875C23.7 13.6875 23.0625 13.875 22.5094 14.1937V6.84375C22.5094 4.2 24.7031 1.875 27.1969 1.875C28.8188 1.875 30.1875 2.86875 31.0125 4.09688C29.8406 4.275 28.7625 4.81875 27.9 5.68125C27.5344 6.04688 27.5344 6.6375 27.9 7.00312C28.2656 7.36875 28.8563 7.36875 29.2219 7.00312C29.9344 6.3 30.8719 5.90625 31.875 5.90625C33.9375 5.90625 35.625 7.575 35.625 9.65625C35.625 9.68437 35.625 9.70312 35.625 9.73125C35.3156 9.68438 35.0062 9.65625 34.6875 9.65625C31.1344 9.65625 28.125 12.7875 28.125 16.5C28.125 17.0156 28.5469 17.4375 29.0625 17.4375C29.5781 17.4375 30 17.0156 30 16.5C30 13.8562 32.1937 11.5312 34.6875 11.5312C37.3125 11.5312 39.375 13.9688 39.375 16.5C39.375 17.2875 39.1594 18.0562 38.7469 18.7969C38.5031 19.2281 38.6344 19.7812 39.0563 20.0531C40.425 20.925 41.25 22.3969 41.25 24C41.25 26.6531 39.1031 28.9688 36.5625 28.9688C36.0469 28.9688 35.625 29.3906 35.625 29.9062C35.625 30.4219 36.0469 30.8438 36.5625 30.8438Z" fill="#0E3846"/>
<path d="M18.5156 20.0719C18.1687 19.6875 17.5781 19.65 17.1937 19.9969C14.1844 22.6875 9.375 20.5312 9.375 16.5C9.375 15.9844 8.95312 15.5625 8.4375 15.5625C7.92188 15.5625 7.5 15.9844 7.5 16.5C7.5 19.7531 9.88125 22.4625 12.9938 22.9781C12.6281 24.1125 11.5687 24.9375 10.3125 24.9375C9.79688 24.9375 9.375 25.3594 9.375 25.875C9.375 26.3906 9.79688 26.8125 10.3125 26.8125C12.6 26.8125 14.5031 25.1719 14.9156 23.0062C16.2188 22.8375 17.4469 22.275 18.4406 21.3937C18.825 21.0469 18.8531 20.4563 18.5156 20.0719Z" fill="#0E3846"/>
<path d="M8.4375 36.4688C7.92188 36.4688 7.5 36.8906 7.5 37.4062C7.5 37.9219 7.92188 38.3438 8.4375 38.3438C10.9313 38.3438 13.125 40.6687 13.125 43.3125C13.125 43.8281 13.5469 44.25 14.0625 44.25C14.5781 44.25 15 43.8281 15 43.3125C15 39.6 11.9906 36.4688 8.4375 36.4688Z" fill="#0E3846"/>
<path d="M15.9375 28.9688C12.7593 28.9688 10.0312 30.7125 8.59684 33.2438C8.34372 33.6938 8.50309 34.2656 8.95309 34.5188C9.40309 34.7719 9.97497 34.6125 10.2281 34.1625C11.3437 32.1937 13.4718 30.8438 15.9375 30.8438C16.4531 30.8438 16.875 30.4219 16.875 29.9062C16.875 29.3906 16.4531 28.9688 15.9375 28.9688Z" fill="#0E3846"/>
<path d="M32.8125 24.9375C31.5562 24.9375 30.4875 24.1125 30.1312 22.9781C33.2437 22.4625 35.625 19.7625 35.625 16.5C35.625 15.9844 35.2031 15.5625 34.6875 15.5625C34.1718 15.5625 33.75 15.9844 33.75 16.5C33.75 19.0875 31.65 21.1875 29.0625 21.1875C27.9093 21.1875 26.7937 20.7656 25.9406 19.9969C25.5562 19.65 24.9656 19.6875 24.6187 20.0719C24.2718 20.4563 24.3093 21.0469 24.6937 21.3937C25.6875 22.2844 26.9156 22.8375 28.2187 23.0062C28.6312 25.1719 30.5343 26.8125 32.8218 26.8125C33.3375 26.8125 33.7593 26.3906 33.7593 25.875C33.7593 25.3594 33.3281 24.9375 32.8125 24.9375Z" fill="#0E3846"/>
<path d="M34.6875 36.4688C31.1344 36.4688 28.125 39.6 28.125 43.3125C28.125 43.8281 28.5469 44.25 29.0625 44.25C29.5781 44.25 30 43.8281 30 43.3125C30 40.6687 32.1937 38.3438 34.6875 38.3438C35.2031 38.3438 35.625 37.9219 35.625 37.4062C35.625 36.8906 35.2031 36.4688 34.6875 36.4688Z" fill="#0E3846"/>
<path d="M34.5281 33.2438C33.0937 30.7125 30.375 28.9688 27.1875 28.9688C26.6719 28.9688 26.25 29.3906 26.25 29.9062C26.25 30.4219 26.6719 30.8438 27.1875 30.8438C29.6531 30.8438 31.7812 32.1937 32.8969 34.1719C33.15 34.6219 33.7219 34.7812 34.1719 34.5281C34.6219 34.2656 34.7812 33.6938 34.5281 33.2438Z" fill="#0E3846"/>
<path d="M18.5112 20.0675C18.166 19.6816 17.5734 19.6486 17.1875 19.9938C14.1811 22.683 9.375 20.5338 9.375 16.5C9.375 15.9822 8.95528 15.5625 8.4375 15.5625C7.91972 15.5625 7.5 15.9822 7.5 16.5C7.5 19.7545 9.88191 22.462 12.9938 22.9741C12.6328 24.1111 11.5674 24.9375 10.3125 24.9375C9.79472 24.9375 9.375 25.3572 9.375 25.875C9.375 26.3928 9.79472 26.8125 10.3125 26.8125C12.596 26.8125 14.5022 25.1709 14.9158 23.0061C16.2196 22.8355 17.4467 22.2776 18.4375 21.3912C18.8234 21.046 18.8564 20.4533 18.5112 20.0675Z" fill="#0E3846"/>
<path d="M8.4375 36.4688C7.91972 36.4688 7.5 36.8885 7.5 37.4062C7.5 37.924 7.91972 38.3438 8.4375 38.3438C10.9346 38.3438 13.125 40.6657 13.125 43.3125C13.125 43.8303 13.5447 44.25 14.0625 44.25C14.5803 44.25 15 43.8303 15 43.3125C15 39.6028 11.9948 36.4688 8.4375 36.4688Z" fill="#0E3846"/>
<path d="M15.9373 28.9688C12.7605 28.9688 10.033 30.7111 8.59672 33.2445C8.34144 33.695 8.4996 34.2671 8.94997 34.5224C9.40044 34.7777 9.97251 34.6196 10.2279 34.1692C11.3468 32.1952 13.4698 30.8438 15.9373 30.8438C16.4551 30.8438 16.8748 30.424 16.8748 29.9062C16.8748 29.3885 16.4551 28.9688 15.9373 28.9688Z" fill="#0E3846"/>
<path d="M32.8125 24.9375C31.5576 24.9375 30.4922 24.1111 30.1313 22.9741C33.2431 22.462 35.625 19.7545 35.625 16.5C35.625 15.9822 35.2052 15.5625 34.6875 15.5625C34.1698 15.5625 33.75 15.9822 33.75 16.5C33.75 19.0847 31.6472 21.1875 29.0625 21.1875C27.9079 21.1875 26.7982 20.7636 25.9375 19.9938C25.5518 19.6486 24.959 19.6815 24.6138 20.0675C24.2685 20.4533 24.3016 21.046 24.6875 21.3912C25.6783 22.2776 26.9055 22.8355 28.2092 23.0061C28.6228 25.1709 30.5291 26.8125 32.8125 26.8125C33.3302 26.8125 33.75 26.3928 33.75 25.875C33.75 25.3572 33.3302 24.9375 32.8125 24.9375Z" fill="#0E3846"/>
<path d="M34.6875 36.4688C31.1302 36.4688 28.125 39.6028 28.125 43.3125C28.125 43.8303 28.5448 44.25 29.0625 44.25C29.5802 44.25 30 43.8303 30 43.3125C30 40.6657 32.1904 38.3438 34.6875 38.3438C35.2052 38.3438 35.625 37.924 35.625 37.4062C35.625 36.8885 35.2052 36.4688 34.6875 36.4688Z" fill="#0E3846"/>
<path d="M34.5281 33.2446C33.0954 30.7172 30.3716 28.9688 27.1875 28.9688C26.6698 28.9688 26.25 29.3885 26.25 29.9062C26.25 30.424 26.6698 30.8438 27.1875 30.8438C29.6532 30.8438 31.7779 32.1948 32.8968 34.1692C33.1524 34.6202 33.725 34.7775 34.1747 34.5225C34.6252 34.2672 34.7833 33.6951 34.5281 33.2446Z" fill="#0E3846"/>
</svg>
