<svg width="37" height="49" viewBox="0 0 37 49" fill="none" xmlns="http://www.w3.org/2000/svg">
<path d="M26.5 15C26.8 15.1 27.1 15.1 27.4 15.1C27.6 15.1 27.8 15.1 28.1 15C29 14.8 29.9 14.3 30.4 13.5C30.6 13.1 31 12.9 31.4 12.8C31.8 12.7 32.3 12.8 32.6 13.1C33.4 13.6 34.3 13.8 35.3 13.7H35.5L35.1 11.7H34.9C34.5 11.8 34 11.7 33.7 11.4C32.3 10.5 30.5 10.6 29.3 11.6C29.5 11.2 29.6 10.7 29.7 10.3C29.7 9.90001 29.9 9.40001 30.3 9.20001C30.6 8.90001 31.1 8.80001 31.5 8.80001C32.4 8.90001 33.4 8.60001 34.1 8.00001L34.3 7.80001L33 6.20001L32.8 6.40001C32.5 6.70001 32 6.80001 31.6 6.80001C29.7 6.70001 27.9 8.10001 27.7 10.1C27.7 10.5 27.5 11 27.1 11.2C26.8 11.5 26.3 11.6 25.9 11.6C25.4 11.6 25 11.6 24.5 11.7C24.3 11.4 24.1 11.2 23.8 11L27.2 4.10001C27.4 3.80001 27.3 3.40001 27.2 3.10001C27 2.80001 26.7 2.60001 26.3 2.60001C25.8 2.60001 25.3 2.40001 25 2.00001C23.5 0.600012 21.2 0.600012 19.7 2.00001C19 2.70001 17.8 2.70001 17.1 2.00001C15.6 0.600012 13.3 0.600012 11.8 2.00001C11.5 2.30001 11 2.50001 10.5 2.50001C10.1 2.50001 9.8 2.70001 9.6 3.00001C9.4 3.30001 9.4 3.70001 9.6 4.00001L13 10.9C12.4 11.3 12.1 11.8 11.9 12.5C11.8 13.1 11.8 13.8 12.1 14.3C5 16.4 0 23 0 30.5V44.8C0 47.1 1.9 49 4.2 49H32.7C35 49 36.9 47.1 36.9 44.8V30.5C36.9 23.7 32.7 17.5 26.5 15ZM34.8 30.5V44.8C34.8 46 33.8 46.9 32.7 46.9H4.2C3 46.9 2.1 45.9 2.1 44.8V30.5C2.1 22.3 8.7 15.7 16.9 15.7H20C28.2 15.7 34.8 22.4 34.8 30.5ZM14.5 12.6H22.4C22.7 12.6 22.9 12.8 22.9 13.1C22.9 13.4 22.7 13.6 22.4 13.6H14.5C14.2 13.6 14 13.4 14 13.1C14 12.8 14.2 12.6 14.5 12.6ZM21.8 10.5H15.2L12.1 4.40001C12.5 4.20001 12.9 4.00001 13.2 3.70001C13.9 3.00001 15.1 3.00001 15.8 3.70001C17.3 5.10001 19.6 5.10001 21.1 3.70001C21.8 3.00001 23 3.00001 23.7 3.70001C24 4.00001 24.4 4.20001 24.8 4.40001L21.8 10.5ZM24.7 14.3C24.7 14.2 24.8 14.2 24.8 14.1C25 14.2 25.2 14.3 25.4 14.4C25.5 14.5 25.7 14.6 25.8 14.6C25.5 14.6 25.1 14.5 24.7 14.3Z" fill="#0E3846"/>
<path d="M22.6447 26.4908L12.816 36.3195L14.301 37.8044L24.1296 27.9757L22.6447 26.4908Z" fill="#0E3846"/>
<path d="M21.6 32.7C20.2 32.7 19 33.9 19 35.3C19 36.7 20.2 37.9 21.6 37.9C23 37.9 24.2 36.7 24.2 35.3C24.3 33.8 23.1 32.7 21.6 32.7ZM22.2 35.3C22.2 35.6 22 35.8 21.7 35.8C21.4 35.8 21.2 35.6 21.2 35.3C21.2 35 21.4 34.8 21.7 34.8C22 34.8 22.2 35 22.2 35.3Z" fill="#0E3846"/>
<path d="M15.3 31.6C16.7 31.6 17.9 30.4 17.9 29C17.9 27.6 16.7 26.4 15.3 26.4C13.9 26.4 12.7 27.6 12.7 29C12.7 30.4 13.8 31.6 15.3 31.6ZM14.7 29C14.7 28.7 14.9 28.5 15.2 28.5C15.5 28.5 15.7 28.7 15.7 29C15.7 29.3 15.5 29.5 15.2 29.5C15 29.5 14.7 29.3 14.7 29Z" fill="#0E3846"/>
<path d="M18.5 20.8C12.3 20.8 7.20001 25.9 7.20001 32.1C7.20001 38.3 12.3 43.4 18.5 43.4C24.7 43.4 29.8 38.3 29.8 32.1C29.8 25.9 24.7 20.8 18.5 20.8ZM18.5 41.4C13.4 41.4 9.20001 37.2 9.20001 32.1C9.20001 27 13.4 22.8 18.5 22.8C23.6 22.8 27.8 27 27.8 32.1C27.7 37.2 23.6 41.4 18.5 41.4Z" fill="#0E3846"/>
</svg>
