<svg width="42" height="48" viewBox="0 0 42 48" fill="none" xmlns="http://www.w3.org/2000/svg">
<path d="M18.9531 29.701C18.1587 29.701 17.3924 29.4393 16.6634 28.9253C15.2428 27.9253 14.6914 26.5327 14.9905 24.6823L13.0839 26.2243L11.8316 25.1028L11.9344 25C14.1774 22.6823 16.5512 21.5047 18.9905 21.5047C21.4297 21.5047 23.8036 22.6823 26.0372 25L26.14 25.1028L24.8877 26.2337L22.9998 24.6916C23.2709 26.7944 22.5793 28.2617 20.8877 29.1869C20.2522 29.5327 19.598 29.701 18.9531 29.701ZM18.9905 23.2711C18.3737 23.2711 17.7942 23.514 17.355 23.9626C16.9157 24.4019 16.6821 24.9813 16.6821 25.5888C16.6914 26.8411 17.7195 27.8785 18.9624 27.8972H18.9905C20.2522 27.8972 21.2802 26.8692 21.2895 25.5982C21.2895 24.9813 21.0559 24.3925 20.6167 23.9533C20.1867 23.514 19.6073 23.2711 18.9905 23.2711V23.1309V23.2711Z" fill="#0E3846"/>
<path d="M29.8879 42.9346H7.03738C5.91589 42.9252 5.00935 42.0187 5.00935 40.9065V3.95327C5.01869 2.83178 5.92523 1.92523 7.03738 1.92523H24.7477V7.07477C24.7477 8.7757 26.1402 10.1682 27.8411 10.1682H32.8505V32.9813L33.3178 33.4486L33.3271 33.4673C33.8131 33.9533 34.2897 34.4393 34.7757 34.9252V14.1495V9.21495C34.7757 9.18692 34.7664 9.14953 34.7664 9.1215C34.7664 9.1028 34.757 9.08411 34.757 9.06542C34.7477 9.05608 34.7477 9.03738 34.7477 9.02804C34.7383 9.00935 34.7383 8.99065 34.729 8.96262C34.729 8.95327 34.7196 8.94393 34.7196 8.93458C34.7196 8.90654 34.7103 8.88785 34.7009 8.86916L34.6916 8.85047V8.84112C34.6822 8.82243 34.6729 8.80374 34.6636 8.78505C34.6636 8.7757 34.6636 8.76636 34.6542 8.75701C34.6449 8.73832 34.6355 8.71963 34.6262 8.71028L34.6168 8.70094C34.6075 8.69159 34.5981 8.68224 34.5981 8.6729C34.5888 8.65421 34.5701 8.64486 34.5607 8.62617L34.5421 8.59813C34.5327 8.58879 34.514 8.57944 34.5047 8.56075C34.4953 8.5514 34.486 8.54206 34.4766 8.53271L26.3738 0.280374L26.3365 0.252336C26.3271 0.242991 26.3178 0.233645 26.3084 0.224299C26.2897 0.205608 26.271 0.186916 26.2523 0.17757L26.2336 0.168224C26.1028 0.0841122 25.9533 0.0280374 25.7944 0.0093458C25.7664 0 25.729 0 25.7009 0H7.03738C5.1028 0 3.46729 1.40187 3.14953 3.28972C1.33645 3.6729 0 5.28972 0 7.15888V43.9065C0 46.0748 1.7757 47.8505 3.95327 47.8505H27.8505C29.7196 47.8505 31.2991 46.5608 31.7009 44.757C31.7009 44.757 31.7009 44.757 31.7103 44.757C31.0935 44.1495 30.486 43.5421 29.8879 42.9346ZM26.6542 3.31776L31.5047 8.24299H27.8318C27.1869 8.24299 26.6636 7.71963 26.6636 7.07477H26.6542V3.31776ZM27.8411 45.9252H3.95327C2.83178 45.9159 1.92523 45.0093 1.92523 43.8972V7.15888C1.92523 6.35514 2.39252 5.65421 3.09346 5.3271L3.08411 40.9065C3.09346 43.0748 4.85981 44.8505 7.03738 44.8505H29.6262C29.2804 45.4953 28.5981 45.9252 27.8411 45.9252Z" fill="#0E3846"/>
<path d="M41.3924 44.243C41.0934 43.1963 40.3551 42.4486 39.6915 41.8038C37.2429 39.3739 34.8037 36.9346 32.3177 34.4299C32.3177 34.4299 32.3177 34.4299 32.3177 34.4206L31.8224 33.9253L31.6728 33.9626L31.6261 33.9813L30.2803 35.4112L27.1027 32.2991C29.6261 29.0187 30.1868 25.4954 28.785 21.8411C27.3644 18.1215 24.5139 15.8598 20.3083 15.1215H20.299L18.7569 15.0468H18.7476C16.3177 15.1496 14.084 15.9907 12.2896 17.4767C10.6635 18.8225 9.44852 20.6636 8.87843 22.6636C7.70086 26.757 9.13077 31.2337 12.4205 33.7944C14.2149 35.1869 16.2242 35.9533 18.3924 36.0748C18.5981 36.0841 18.8037 36.0935 19.0093 36.0935C21.4579 36.0935 23.7196 35.2711 25.7289 33.6542L28.9439 36.8879L27.327 38.3552L27.4205 38.458C27.4672 38.514 27.5139 38.5608 27.5513 38.6075C27.6261 38.6916 27.6822 38.757 27.7476 38.8225L28.9439 40.0187C30.5233 41.5982 32.1588 43.243 33.7756 44.8505C33.9625 45.0374 34.1495 45.2243 34.3364 45.4112C34.9625 46.0468 35.6167 46.701 36.299 47.2991C36.8224 47.7477 37.4953 48 38.2149 48C38.9438 48 39.6541 47.7477 40.2242 47.2897C40.8037 46.8225 41.1121 46.215 41.3924 45.4393L41.4018 45.4112V44.2617L41.3924 44.243ZM19.0093 34.3178H18.9812C16.6541 34.3178 14.4579 33.3925 12.7943 31.7197C11.1401 30.0561 10.2336 27.8692 10.2523 25.5701C10.2896 20.7664 14.2055 16.8598 18.9906 16.8598V16.7196V16.8598C23.7943 16.8598 27.7009 20.7757 27.7009 25.5795C27.7102 30.3832 23.813 34.2991 19.0093 34.3178ZM39.5326 45.2711C39.3457 45.8318 38.8224 46.2056 38.2429 46.2056C37.9439 46.2056 37.6635 46.1122 37.4205 45.9253C37.3177 45.8505 37.2242 45.757 37.1401 45.6729C34.7756 43.3084 32.4111 40.9439 30.056 38.5795C30.0186 38.5421 29.9812 38.4953 29.9438 38.4486L31.8691 36.5327C31.9065 36.5608 31.9439 36.5888 31.9719 36.6168C33.0934 37.729 34.2055 38.8505 35.327 39.972C36.5887 41.2243 37.841 42.486 39.1027 43.7383C39.5794 44.2243 39.7196 44.7103 39.5326 45.2711Z" fill="#0E3846"/>
</svg>
