<svg width="40" height="40" viewBox="0 0 40 40" fill="none" xmlns="http://www.w3.org/2000/svg">
<circle cx="20" cy="20" r="20" fill="#E7EBED"/>
<path d="M27.5944 21C27.6454 20.7002 27.6454 20.3501 27.6454 20C27.6454 19.6499 27.5944 19.3501 27.5944 19L29.7419 17.3501C29.9467 17.2002 29.9976 16.9502 29.8443 16.7002L27.7987 13.25C27.6963 13.0498 27.3897 12.9502 27.1849 13.0498L24.6279 14.0498C24.1165 13.6499 23.5032 13.2998 22.8895 13.0498L22.5314 10.3999C22.4804 10.2002 22.2757 10 22.0199 10H17.9288C17.6731 10 17.4683 10.2002 17.4174 10.3999L17.0083 13.0498C16.3945 13.2998 15.8322 13.6499 15.2694 14.0498L12.7124 13.0498C12.4567 12.9502 12.2009 13.0498 12.0986 13.25L10.053 16.7002C9.95112 16.8999 10.002 17.2002 10.1554 17.3501L12.3544 19C12.3544 19.3501 12.3034 19.6499 12.3034 20C12.3034 20.3501 12.3544 20.6499 12.3544 21L10.2069 22.6499C10.0021 22.7998 9.95127 23.0498 10.1045 23.2998L12.1501 26.75C12.2525 26.9502 12.5592 27.0498 12.7639 26.9502L15.321 25.9502C15.8323 26.3501 16.4456 26.7002 17.0594 26.9502L17.4684 29.6001C17.5198 29.8501 17.7241 30 17.9798 30H22.071C22.3267 30 22.5315 29.7998 22.5824 29.6001L22.992 26.9502C23.6053 26.7002 24.1681 26.3501 24.7304 25.9502L27.2874 26.9502C27.5431 27.0498 27.7988 26.9502 27.9012 26.75L29.9468 23.2998C30.0492 23.1001 29.9978 22.7998 29.8444 22.6499L27.5944 21ZM19.9744 23.5C17.9798 23.5 16.3946 21.9502 16.3946 20C16.3946 18.0498 17.9798 16.5 19.9744 16.5C21.969 16.5 23.5542 18.0498 23.5542 20C23.5542 21.9502 21.969 23.5 19.9744 23.5Z" fill="#7998A7"/>
</svg>
