<?xml version="1.0" encoding="utf-8"?>
<!-- Generator: Adobe Illustrator 21.0.0, SVG Export Plug-In . SVG Version: 6.00 Build 0)  -->
<svg version="1.1" id="Layer_1" xmlns="http://www.w3.org/2000/svg" xmlns:xlink="http://www.w3.org/1999/xlink" x="0px" y="0px"
	 viewBox="0 0 550 226" style="enable-background:new 0 0 550 226;" xml:space="preserve">
<style type="text/css">
	.st0{fill-rule:evenodd;clip-rule:evenodd;fill:#1D4D5E;}
	.st1{fill-rule:evenodd;clip-rule:evenodd;fill:#F3AF31;}
</style>
<path class="st0" d="M190.6,198c3-0.7,8-2.2,11.1-3.3c6.2-2.2,6.4-2.6,3.8-7.6c-4.7-9.3-21.8-8.6-27.8,1.1
	c-5.5,8.9-2.8,20.6,5.9,25.2c4.1,2.2,15,2,19.6-0.2c3.4-1.7,4.7-4.1,1.9-3.7c-6.4,1-10.9,1-13.4-0.2c-2.8-1.3-5.2-4.5-6.1-7.9
	C185.1,199.4,185.3,199.2,190.6,198z M184.8,195.2c-1.2,0,0.8-8,2.5-9.9c2.9-3.2,8.4-0.6,9.9,4.6c0.8,2.8,1.1,2.6-6.6,4.2
	C187.6,194.7,184.9,195.2,184.8,195.2z"/>
<path class="st0" d="M226.9,214.3c-1.1-1.1-0.4-2.5,1.3-2.5c3.4,0,3.5-0.9,3.3-21.8l-0.2-19.8l-2.2-0.4c-1.3-0.2-2.3-0.9-2.5-1.7
	c-0.2-1.2,1-1.3,17.4-1.3h17.6l0.5,4c0.7,5.8,0.3,8.4-1.4,8.4c-1,0-1.7-0.9-2.4-3c-1.6-4.7-3.2-5.6-10.1-5.6h-5.9v9.4v9.4l5.8-0.2
	c5.8-0.2,5.8-0.2,6.9-2.7c0.6-1.3,1.5-2.4,2.1-2.4c0.8,0,1,1.8,1,7.5c0,6-0.2,7.5-1.1,7.5c-0.6,0-1.3-1-1.6-2.3
	c-0.7-3-2.3-3.7-8.2-3.7h-4.9l0.2,8.8l0.2,8.8l2.4,0.7c1.6,0.5,2.4,1.2,2.4,2.1c0,1.2-0.9,1.3-10,1.3
	C231.9,214.8,227.2,214.5,226.9,214.3L226.9,214.3z"/>
<path class="st0" d="M266.2,213.3c0-1,0.6-1.5,2.1-1.7l2.1-0.2v-12.7v-12.8l-2.1-0.2c-1.4-0.2-2.1-0.7-2.1-1.6c0-1.3,3-2.3,11-3.5
	l3.2-0.5l0.2,15.7l0.2,15.7l2.1,0.2c1.5,0.2,2.1,0.7,2.1,1.7c0,1.4-0.6,1.5-9.4,1.5C266.8,214.8,266.2,214.7,266.2,213.3
	L266.2,213.3z"/>
<path class="st0" d="M289.4,213.3c0-1,0.5-1.5,1.3-1.5c2.8,0,3.2-1.4,3.2-12.8c0-6.1-0.2-11.6-0.5-12.2c-0.3-0.7-1.3-1.2-2.3-1.2
	c-1.2,0-1.8-0.4-1.8-1.4c0-1.1,1.1-1.6,6-2.7c6.4-1.4,8.2-1.2,8.2,0.8c0,0.9,0.4,1.1,1.3,0.7c7-3,10.5-3.3,15.3-1.4
	c4.9,2,5.9,5,5.9,17.9c0,10.9,0.4,12.3,3.2,12.3c0.9,0,1.4,0.6,1.4,1.5c0,1.5-0.4,1.5-9.2,1.3c-7.9-0.2-9.2-0.4-9.4-1.5
	c-0.2-0.9,0.4-1.3,1.9-1.5l2.1-0.2l0.2-9.8c0.1-5.4,0-10.5-0.2-11.5c-0.7-3-3.1-4.7-6.6-4.7c-5.7,0-5.8,0.2-5.6,13.9l0.2,12l2.1,0.2
	c1.5,0.2,2,0.6,1.9,1.5c-0.2,1.1-1.5,1.3-9.4,1.5C289.8,214.8,289.4,214.7,289.4,213.3L289.4,213.3z"/>
<path class="st0" d="M366.7,211.8c-2.5,0-3.2-2.9-3.7-14.6c-0.3-6.4-0.8-11.9-1.3-12.8c-1.1-1.9-6-4-9.4-4c-4.1,0-9.8,2.1-13.5,4.9
	c-3.5,2.7-3.5,2.7-2.3,4.9c1.1,2.1,2.6,3,2.6,1.5c0-0.4,1.1-1.9,2.5-3.4c2.2-2.3,3-2.7,6-2.7c3.9,0,5.2,1.3,6,6.1l0.5,2.7l-4.3,1
	c-9.4,2.1-15.2,6.7-15.2,12.1c0,2.3,0.5,3.5,2.2,5.2c2,2,2.6,2.2,7.5,2.2c3.4,0,6.2-0.4,7.9-1.3c2.5-1.2,2.7-1.2,4,0
	c1.5,1.4,10.1,1.8,12.1,0.6C369.4,213.2,368.5,211.8,366.7,211.8z M352.8,209.8c-2.3,0.9-5.3,0.4-6.6-0.9c-1.3-1.4-1.6-5-0.8-7.2
	c0.6-1.6,4.2-3.4,6.6-3.4c1.9,0,1.9,0.1,1.9,5.5C353.9,208.2,353.7,209.4,352.8,209.8z"/>
<path class="st0" d="M371.7,214.3c-1.1-1.1-0.4-2.4,1.6-2.6l2.1-0.2v-12.7v-12.8l-2.1-0.2c-1.4-0.2-2.1-0.7-2.1-1.6
	c0-1.3,3-2.3,11.1-3.5c3.1-0.5,3.2-0.4,3.2,1.5v1.9l2.8-1.7c2.2-1.3,4-1.7,8.1-1.7c9.8,0,11.7,2.9,12.3,19.5
	c0.4,11.2,0.4,11.2,2.3,11.7c1,0.2,1.9,0.9,1.9,1.5c0,0.9-1.7,1.1-9.4,1.1c-7.8,0-9.4-0.2-9.4-1.1c0-0.6,0.8-1.2,1.7-1.4
	c2.9-0.4,3.4-2.6,3-12.7c-0.4-11.3-1.4-13.2-6.6-13.6c-1.8-0.1-4,0.2-5,0.7c-1.7,0.9-1.7,1-1.5,13l0.2,12.1l2.1,0.2
	c1.5,0.2,2.1,0.7,2.1,1.7c0,1.4-0.6,1.5-8.9,1.5C376.2,214.8,372,214.5,371.7,214.3L371.7,214.3z"/>
<path class="st0" d="M423.7,213c-1.8-0.9-4.3-3-5.5-4.6c-2-2.5-2.3-3.5-2.6-8.4c-0.2-4.6,0-6.1,1.4-9c4.1-8.4,15.4-12.9,25.1-9.9
	c2.7,0.8,3,1.2,2.8,3.1c-0.1,1.2-0.8,2.8-1.7,3.7l-1.5,1.5l-2.2-2.1c-1.5-1.5-3.2-2.2-5.6-2.5c-2.9-0.3-3.6-0.1-5.2,1.5
	c-4.8,4.8-4.4,15.1,0.7,20.4c2.9,3,5.9,3.8,12.4,3.2c3.9-0.4,4.4-0.2,4.4,0.9c0,2.2-5.1,3.8-12.6,3.8
	C428.1,214.8,426.4,214.4,423.7,213L423.7,213z"/>
<path class="st0" d="M449.9,213.3c0-1,0.7-1.5,2.3-1.9l2.3-0.5l-0.2-12.6l-0.2-12.6l-2.1-0.2c-1.4-0.2-2.1-0.7-2.1-1.6
	c0-1.1,1.2-1.6,5.6-2.6c9.5-2.1,8.5-3.6,8.8,14.3l0.2,15.6l2.1,0.2c1.5,0.2,2.1,0.7,2.1,1.7c0,1.4-0.6,1.5-9.4,1.5
	C450.6,214.8,449.9,214.6,449.9,213.3L449.9,213.3z"/>
<path class="st0" d="M505.4,211.8c-0.8,0-1.7-0.4-2-0.9c-0.3-0.5-0.8-6-1-12.2c-0.5-12.8-1.3-15.5-5.6-17.3
	c-5.5-2.3-14.1-0.4-19.3,4.2c-3,2.7-3.1,2.9-2.1,4.7c1.4,2.6,1.9,2.5,3.8-0.7c2-3.2,3.6-4.1,7.3-4.1c3.6,0,5.4,1.8,5.9,5.8l0.4,2.9
	l-4,0.9c-13.5,3-19.7,11.5-12.9,17.8c1.7,1.6,2.7,1.8,7.5,1.8c3.5,0,6.4-0.4,7.8-1.2c2-1,2.4-1,3.9,0c1.8,1.3,10,1.6,11.7,0.5
	C508.2,213.2,507.3,211.8,505.4,211.8z M492.5,204.1l-0.2,5.8l-3,0.2c-3.8,0.3-5.6-1.4-5.6-5.3c0-3.3,3.4-6.6,6.8-6.6h2.2
	L492.5,204.1z"/>
<path class="st0" d="M510.4,214.3c-1.1-1.1-0.4-2.4,1.6-2.6l2.1-0.2v-22.1v-22.1l-2.1-0.2c-1.5-0.2-2-0.6-1.9-1.5
	c0.2-1.3,2.1-1.7,10.2-2.6l3.9-0.4v23.8c0,24.7,0.1,25.6,3.1,25.6c0.9,0,1.4,0.6,1.4,1.5c0,1.4-0.5,1.5-8.9,1.5
	C514.9,214.8,510.7,214.5,510.4,214.3L510.4,214.3z"/>
<path class="st0" d="M87.7,213c0-0.6,1-1.2,2.2-1.5c1.4-0.3,2.3-1,2.6-2.2c0.8-2.8,0.5-35.6-0.2-37.7c-0.5-1.4-1.3-1.9-2.6-1.9
	c-1.4,0-1.9-0.4-1.9-1.5c0-1.5,0.4-1.5,10.3-1.3c8.5,0.2,10.3,0.4,10.3,1.3c0,0.7-0.9,1.3-2.3,1.5l-2.2,0.4l-0.2,20l-0.2,20l1.7,0.5
	c5.6,1.5,11.1-0.6,13.3-5.1c0.8-1.7,1.5-3.6,1.5-4.1c0-0.5,0.9-0.9,2-0.9c1.9,0,1.9,0.1,1.4,3.6c-0.3,2-0.9,5-1.3,6.7l-0.8,3.2
	h-16.8C90.7,214,87.7,213.8,87.7,213L87.7,213z"/>
<path class="st0" d="M126.7,212.9c0-0.6,0.6-1.1,1.3-1.1c2.8,0,3.2-1.4,3.2-12.8c0-6.1-0.2-11.6-0.5-12.2c-0.3-0.7-1.3-1.2-2.3-1.2
	c-1.3,0-1.8-0.4-1.8-1.4c0-1.5,3-2.6,10.3-3.5l3.9-0.5l0.2,15.7l0.2,15.7l2.1,0.2c1.2,0.1,2.1,0.7,2.1,1.3c0,0.9-1.7,1.1-9.4,1.1
	C128.2,214,126.7,213.8,126.7,212.9L126.7,212.9z"/>
<path class="st0" d="M149.4,213.1c0.2-0.5,1-1.1,1.8-1.2c0.8-0.1,1.8-0.6,2.2-1c0.4-0.4,0.9-8.3,1.1-18.9c0.4-16.7,0.5-18.4,2-21.2
	c3.2-6,8.6-9.4,14.9-9.4c3.5,0,8.6,1.7,8.6,2.8c0,1-2.9,5.5-3.6,5.5c-0.3,0-1.8-0.8-3.2-1.9c-3.2-2.4-6.3-2.4-7.8-0.2
	c-0.7,1-1.2,4-1.3,7.7l-0.2,6l4.7,0.2c4.1,0.2,4.7,0.4,4.7,1.7c0,1.2-0.5,1.5-2.5,1.5c-1.4,0-3.6,0.2-4.9,0.5l-2.3,0.5v11.1
	c0,13.4,0.4,15,4.1,15c1.8,0,2.6,0.3,2.6,1.1c0,0.9-1.7,1.1-10.6,1.1C151.5,214,149.1,213.8,149.4,213.1L149.4,213.1z"/>
<path class="st0" d="M131.2,173c-2-2.6-2-4.4,0.3-6.7c2.2-2.2,4.8-2.3,7.4-0.3c2.5,2,2.6,5.1,0.2,7.3
	C136.7,175.7,133.2,175.5,131.2,173L131.2,173z"/>
<path class="st0" d="M270.7,173c-3.6-4.6,1.7-10.4,7-7.6c2.2,1.1,2.7,2.1,2.8,4.6C280.5,174.8,273.8,176.9,270.7,173L270.7,173z"/>
<path class="st0" d="M454.5,173c-2-2.6-2-4.4,0.3-6.7c3.5-3.5,9.4-1.2,9.4,3.6C464.2,174.8,457.5,176.9,454.5,173L454.5,173z"/>
<path class="st1" d="M265.1,147.4c-1.2-1.5-4.2-4.1-6.6-5.9l-4.3-3.2l3.7-2.7c2.1-1.5,4.1-2.7,4.5-2.7c1.4,0,5.9,12,5.9,15.9
	C268.4,150.9,267.6,150.5,265.1,147.4L265.1,147.4z"/>
<path class="st0" d="M26.7,147.1c-1.6-0.4-3.4-1.6-4-2.6c-1.6-2.5-2.3-12.2-0.9-13.1c2-1.3,2.8-0.7,4.1,3.1
	c2.3,7.1,7.8,11.2,13.4,10.1c3.7-0.7,5.3-2.9,5.3-7.2c0-4.5-1.7-6.5-8.6-10.3c-8.9-4.9-11.3-6.9-12.9-10.5c-1.8-4.1-1.4-8.9,1-12.3
	c3.2-4.4,12.4-6.8,20.3-5.1c6.2,1.3,6.7,1.9,7.2,8.2l0.4,5.4h-2c-1.3,0-2-0.4-2-1.2c0-1.9-2.9-6.9-4.7-8.2c-2.4-1.7-7.5-1.5-9.9,0.4
	c-1.6,1.2-2,2.2-2,4.7c0,4,1.8,5.8,10.5,10.6c10.6,5.8,13.1,9,12.6,16c-0.4,5-2.3,8.1-6.9,10.6c-2.6,1.5-4.3,1.8-10.6,1.9
	C32.9,147.8,28.3,147.6,26.7,147.1L26.7,147.1z"/>
<path class="st0" d="M67.6,146.9c-3.7-1.6-4.6-4.7-4.7-15.5c-0.1-11.2-0.5-13-3-13c-1.1,0-1.9-0.5-2.1-1.3c-0.3-1.5,3.1-2.6,9.7-3.3
	l4.2-0.5l0.3,12.7c0.3,13.5,0.8,15.2,4.2,16.7c2.4,1.1,6.4,1,7.9-0.1c1.1-0.8,1.3-2.3,1.1-12.6l-0.2-11.6l-2.1,0
	c-1.5,0-2.1-0.3-2.1-1.3c0-1.5,3.5-2.7,9.9-3.4l4.3-0.4v13.5c0,7.4,0.2,14.1,0.5,14.7c0.3,0.7,1.3,1.2,2.2,1.2
	c1.3,0,1.8,0.4,1.8,1.4c0,1.1-1,1.7-4.4,2.6c-5.7,1.6-7.1,1.5-8.2-0.2c-0.9-1.5-0.9-1.5-4.1,0C79.2,148.3,71.2,148.4,67.6,146.9
	L67.6,146.9z"/>
<path class="st0" d="M104.3,145.9c0.1-0.7,1-1.4,1.9-1.5c2.2-0.3,2.5-1.9,2.5-13c0-10.8-0.6-13.6-3.2-13.2c-1.1,0.1-1.8-0.2-1.9-0.9
	c-0.3-1.4,3.9-2.9,10.1-3.5c3.7-0.4,4-0.3,4,1.2c0,1.9-0.2,1.9,3.6,0.1c3.8-1.8,11.2-2,14.5-0.4c4,2.1,4.8,4.7,5.2,17.6l0.4,11.6
	l1.9,0.4c1,0.2,2,1,2.1,1.7c0.2,1.2-0.7,1.3-9.2,1.3c-8.5,0-9.5-0.1-9.2-1.3c0.1-0.7,1.1-1.5,2.1-1.7l1.9-0.4v-11.1v-11.1l-2.1-1.8
	c-2.4-2.1-6.1-2.4-8.6-0.6c-1.6,1.1-1.7,1.6-1.7,13v11.9l2.2,0.5c1.3,0.3,2.3,0.9,2.3,1.6c0,1-1.5,1.1-9.4,1.1
	C104.9,147.3,104.1,147.1,104.3,145.9L104.3,145.9z"/>
<path class="st1" d="M212.3,146.5c-10.1-1.8-21.6-7.1-28.2-13l-3-2.6l4.9,1.6c5.6,1.8,18.9,2.2,24.9,0.7c3.5-0.9,3.6-0.9,9,2.8
	c5.8,3.9,11.3,6.4,15.6,7.2c1.6,0.3,0.6-0.4-2.8-1.7c-5.5-2.2-14.6-8.2-14.2-9.4c0.1-0.4,3.2-1.7,6.9-3.1
	c12.5-4.5,22.6-10.5,30.8-18.4c5.1-5,8.7-9.3,10.5-12.8c1.9-3.7,2.2-1.7,0.4,2.5c-3.8,8.9-12.1,18.4-21.5,24.6
	c-2.7,1.8-4.8,3.5-4.8,3.9c0,0.4,1.9,3,4.1,5.8c2.3,2.8,4.1,5.3,4.1,5.5c0,0.8-6,3.4-7.8,3.4c-1,0-1.9,0.3-1.9,0.6
	C239.2,146.1,219.9,147.8,212.3,146.5L212.3,146.5z"/>
<path class="st1" d="M278.8,133.7c-1.9-1.2-5.2-2.8-7.3-3.5c-2.1-0.7-3.8-1.6-3.8-2c0-0.7,5.1-6.7,6.1-7.1c1-0.4,5.2,4.8,7.8,9.8
	C284.6,136.6,284.2,137,278.8,133.7L278.8,133.7z"/>
<path class="st1" d="M188.7,130.4c-13.2-2.7-18.9-8.2-24.1-22.9c-1.7-4.7-1.8-5.4-0.6-4.4c4.5,4,13.4,6.1,23.8,5.7l6.7-0.3l3,4.4
	c1.7,2.4,5.5,7.2,8.4,10.6c5.4,6.2,5.4,6.2,3.4,6.6C204.4,131.4,193.6,131.4,188.7,130.4L188.7,130.4z"/>
<path class="st1" d="M209.9,124.2c-4.8-5.2-12.4-15.8-11.8-16.4c0.2-0.2,2.7-1,5.7-1.8c10.9-3,24.7-9.8,33.7-16.6
	c10.1-7.6,16.8-15.2,22.1-24.8c2.3-4.3,2.9-4.9,2.5-3c-0.6,3.6-5.3,12.5-9.6,18.4c-5.1,7-15.2,16.1-22.4,20.4l-6,3.6l2,3.5
	c1.1,1.9,3.7,6,5.7,9l3.7,5.5l-4.2,1.8c-3.6,1.6-9.5,3.6-15.1,5.2C214.9,129.2,213.7,128.3,209.9,124.2L209.9,124.2z"/>
<path class="st1" d="M289.6,117.6c-1.8-0.6-5.2-1.2-7.7-1.5c-2.4-0.3-4.4-0.7-4.4-0.9c0-1.2,4-8.4,4.7-8.4c1.7,0,11.2,8,12.6,10.7
	C295.7,119,294.3,119.1,289.6,117.6L289.6,117.6z"/>
<path class="st1" d="M173,104.5c-2.4-0.8-5.5-2.3-7-3.4c-4.3-3.3-5-6-4.6-16.5c0.2-5,0.7-9.9,1.2-11l0.8-2l3.8,1.9
	c2.5,1.2,5.6,2,8.9,2.3l5.1,0.4l2.1,6.8c1.1,3.8,3.6,10.2,5.5,14.2c2.9,6.1,3.3,7.5,2.4,8.1C189.2,106.5,177.6,106,173,104.5
	L173,104.5z"/>
<path class="st1" d="M194,101.2c-3.9-7-9.5-21.4-9.5-24.6c0-0.9,1-1.3,3.7-1.7c4.1-0.5,11.7-3.1,18.3-6c11.2-5,25.7-17.7,30.1-26.1
	c2.3-4.3,3.9-5.8,3-2.6c-2,7.2-9.5,17.9-17,24.2c-3.2,2.7-11.6,8.1-13.7,8.9c-0.5,0.2,1.3,4.5,4.8,11.5c3.1,6.1,5.7,11.4,5.8,11.6
	c0.5,1-19.6,8.2-23,8.2C196.2,104.5,195,103,194,101.2L194,101.2z"/>
<path class="st1" d="M283.7,98.4c0.3-1.4,0.7-3.8,1-5.4c0.4-2.4,0.7-2.8,2-2.4c2.9,0.8,14.2,6.7,14.5,7.6c0.2,0.6-2.3,1-7.5,1.2
	c-4.2,0.2-8.4,0.6-9.1,1C283.3,100.9,283.2,100.8,283.7,98.4L283.7,98.4z"/>
<path class="st1" d="M285.3,83.3c-0.8-2.4-0.7-8.8,0.1-9.1c1.2-0.5,9.9,0.8,13.4,2c4.2,1.4,3.9,2.4-0.9,3.4c-2.4,0.5-6,1.8-8.1,2.8
	C285.4,84.6,285.7,84.5,285.3,83.3L285.3,83.3z"/>
<path class="st1" d="M173.6,72.5c-3.8-0.8-8.6-3.6-8.6-4.9c0-2.1,4.1-10.7,7.6-15.9c4.2-6.3,9.7-11.9,11.1-11.3
	c0.6,0.2,0.9,0.2,0.7,0c-0.6-0.6,2.2-3.6,5.3-5.5l2.6-1.6l3.1,9.2c1.7,5,4.5,12.4,6.2,16.3c2.8,6.5,3,7.2,1.8,8.1
	c-1.6,1.3-14.1,5.2-17.4,5.5c-2.6,0.3-2.6,0.2-3.5-3.5c-1.1-4.7-1.3-18.6-0.3-22.1c0.4-1.4,0.6-2.7,0.4-2.9
	c-0.2-0.2-0.9,1.6-1.6,3.9c-1.3,4.4-1.7,19.1-0.7,23.1c0.5,1.9,0.4,2-2.4,1.9C176.4,72.9,174.4,72.7,173.6,72.5L173.6,72.5z"/>
<path class="st1" d="M281.2,63.2c-0.9-2.5-1.5-4.7-1.4-4.8c0.2-0.2,3.4-0.7,7.1-1.2c6.4-0.8,10.8-0.6,10.8,0.7
	c0,0.3-1.6,1.4-3.5,2.4c-1.9,1-5.1,3.1-7,4.7c-2,1.6-3.7,2.8-3.9,2.8C283,67.8,282.1,65.7,281.2,63.2L281.2,63.2z"/>
<path class="st1" d="M273.6,49.2c-1.4-2-2.7-3.8-2.8-4.1c-0.3-0.7,7-4.1,11.1-5.1c1.9-0.5,4-1,4.7-1.2c2.2-0.6,1.5,1-2.2,4.7
	c-1.9,2-4.3,4.9-5.3,6.4c-1,1.6-2.1,2.8-2.4,2.8C276.5,52.8,275.1,51.1,273.6,49.2L273.6,49.2z"/>
<path class="st1" d="M262.8,37.6c-2.1-1.6-3.8-3.3-4-3.6c-0.3-0.9,7.1-6.6,11.3-8.7c2-1,3.6-1.4,3.6-1c0,0.4-0.9,2.4-2,4.2
	c-1.1,1.9-2.7,5.4-3.6,7.7l-1.6,4.3L262.8,37.6L262.8,37.6z"/>
<path class="st1" d="M248.4,28.9c-2.2-1.1-3.9-2.3-3.9-2.8c0-1.9,9.7-13,11.4-13.1c0.8,0,0.7,0.6-0.5,4.6c-0.6,1.9-1.3,5.7-1.6,8.4
	c-0.3,2.7-0.7,5-1,4.9C252.5,30.9,250.5,30,248.4,28.9L248.4,28.9z"/>
<path class="st1" d="M195.7,27.7c-1.2-3.4-1.9-15.1-0.9-15.7c0.4-0.3,1.8,1.3,3,3.5c1.2,2.2,3.6,5.5,5.3,7.4l3,3.4l-4.8,1.9
	l-4.8,1.9L195.7,27.7L195.7,27.7z"/>
<path class="st1" d="M211.6,23.7c-0.8-2.2,2.2-16.7,3.5-16.7c0.3,0,1.3,2.4,2.3,5.4c0.9,3,2.4,6.6,3.2,8s1.3,2.7,1.2,2.8
	c-0.1,0.1-2.4,0.6-5,0.9C213,24.6,212,24.6,211.6,23.7L211.6,23.7z"/>
<path class="st1" d="M231.8,24.2c-1.8-0.4-3.4-0.8-3.6-0.9c-1.1-1.1,6.3-16.3,7.9-16.3c0.3,0,0.7,2.8,0.7,6.3
	c0.1,3.4,0.4,7.4,0.8,8.8c0.4,1.4,0.7,2.6,0.7,2.7C238.4,25.2,235.1,24.8,231.8,24.2L231.8,24.2z"/>
</svg>
