<?xml version="1.0" encoding="utf-8"?>
<!-- Generator: Adobe Illustrator 16.0.0, SVG Export Plug-In . SVG Version: 6.00 Build 0)  -->
<!DOCTYPE svg PUBLIC "-//W3C//DTD SVG 1.1//EN" "http://www.w3.org/Graphics/SVG/1.1/DTD/svg11.dtd">
<svg version="1.1" id="Layer_1" xmlns="http://www.w3.org/2000/svg" xmlns:xlink="http://www.w3.org/1999/xlink" x="0px" y="0px"
	 width="500px" height="500px" viewBox="0 0 500 500" enable-background="new 0 0 500 500" xml:space="preserve">
<g>
	<path fill="#525252" d="M75.283,262.549c2.07-36.873,12.529-75.346,47.94-102.182c27.905-21.15,58.613-26.762,92.233-14.412
		c45.691,16.782,31.237,16.601,76.309-0.201c47.311-17.641,93.926-0.473,116.794,26.771c4.735,5.636,6.644,8.585-1.178,14.295
		c-56.472,41.245-50.956,125.312,10.279,159.48c6.735,3.753,8.529,6.246,5.466,14.083c-12.738,32.605-30.321,61.981-54.924,86.925
		c-16.544,16.769-36.146,22.066-58.753,13.799c-4.208-1.538-8.529-2.799-12.604-4.624c-25.469-11.389-50.886-10.817-76.2,0.328
		c-8.538,3.76-17.413,6.432-26.435,8.371c-14.069,3.021-25.802-3.298-36.167-11.619c-20.784-16.695-35.267-38.613-48.358-61.431
		C89.216,356.458,75.245,305.284,75.283,262.549z"/>
	<path fill="#525252" d="M336.884,46.058c-0.65,38.102-30.229,77.257-64.998,86.062c-20.33,5.146-24.49,1.329-20.712-19.008
		c7.384-39.764,38.69-70.586,79.598-78.708c4.805-0.956,6.536,0.133,6.131,4.936C336.723,41.565,336.878,43.816,336.884,46.058z"/>
</g>
</svg>
